<svg width="34" height="34" fill="none" xmlns="http://www.w3.org/2000/svg"><circle cx="17" cy="17" r="17" fill="#5E5E5E"/><path fill-rule="evenodd" clip-rule="evenodd" d="M17 29c6.627 0 12-5.373 12-12S23.627 5 17 5 5 10.373 5 17s5.373 12 12 12zm0 2c7.732 0 14-6.268 14-14S24.732 3 17 3 3 9.268 3 17s6.268 14 14 14z" fill="#061637"/><path d="M11.983 22h-1.832v-5.865c0-.638.032-1.372.096-2.201a8.9 8.9 0 01-.355.417c-.2.232-.595.649-1.183 1.25l-1.04-1.134 2.66-2.461h1.654V22zm4.744-10.124c.78 0 1.402.221 1.867.663.465.442.697 1.044.697 1.805 0 .47-.11.895-.328 1.278-.214.378-.581.74-1.1 1.087.583.415.997.84 1.243 1.278.246.433.37.907.37 1.422 0 .816-.251 1.475-.752 1.976-.502.501-1.167.752-1.997.752-.86 0-1.535-.23-2.023-.69-.488-.466-.731-1.126-.731-1.983 0-.574.12-1.08.362-1.518.246-.442.624-.827 1.135-1.155-.474-.378-.814-.759-1.019-1.142a2.8 2.8 0 01-.3-1.305c0-.748.239-1.345.717-1.791.483-.451 1.103-.677 1.86-.677zm-.99 7.492c0 .401.081.72.245.957.169.237.408.356.718.356.337 0 .588-.119.752-.356.169-.237.253-.556.253-.957 0-.287-.066-.558-.198-.813-.132-.256-.388-.55-.766-.882l-.096-.096c-.296.219-.521.47-.676.752-.155.278-.233.624-.233 1.04zm.977-6.05c-.26 0-.456.096-.588.287-.132.187-.198.456-.198.807 0 .3.054.563.164.786.11.223.321.46.636.711.3-.232.505-.465.615-.697.114-.232.17-.5.17-.8 0-.73-.266-1.094-.8-1.094zm5.708 4.457h-1.736V16.36h1.736v-2.55h1.347v2.55h1.736v1.415h-1.736v2.516h-1.347v-2.516z" fill="#061637"/></svg>