<svg width="245" height="60" fill="none" xmlns="http://www.w3.org/2000/svg"><rect x=".5" y=".5" width="244" height="59" rx="3.5" fill="#161E27"/><circle cx="30" cy="30" r="21.5" stroke="#8D979E"/><path d="M36.71 36.5c-.83 1.24-1.71 2.45-3.05 2.47-1.34.03-1.77-.79-3.29-.79-1.53 0-2 .77-3.27.82-1.31.05-2.3-1.32-3.14-2.53-1.71-2.47-3.02-7.02-1.26-10.08.87-1.52 2.43-2.48 4.12-2.51 1.28-.02 2.5.87 3.29.87.78 0 2.26-1.07 3.81-.91.65.03 2.47.26 3.64 1.98-.09.06-2.17 1.28-2.15 3.81.03 3.02 2.65 4.03 2.68 4.04-.03.07-.42 1.44-1.38 2.83zM31 20.5c.73-.83 1.94-1.46 2.94-1.5.13 1.17-.34 2.35-1.04 3.19-.69.85-1.83 1.51-2.95 1.42-.15-1.15.41-2.35 1.05-3.11zm38.695 2l-.546-1.638h-3.627l-.546 1.638h-1.937l3.185-9.1h2.223l3.198 9.1h-1.95zm-3.601-3.315h2.496l-1.248-3.718-1.248 3.718zM76.474 16h1.846l-2.47 6.5h-1.911l-2.47-6.5h1.846l1.573 4.55L76.474 16zm7.34 0h1.677v6.5h-1.677v-.767c-.502.633-1.209.949-2.119.949-.866 0-1.612-.33-2.236-.988-.615-.667-.923-1.482-.923-2.444s.308-1.772.923-2.431c.624-.667 1.37-1.001 2.236-1.001.91 0 1.617.316 2.12.949V16zm-3.094 4.576c.338.338.767.507 1.287.507.52 0 .95-.169 1.287-.507.347-.347.52-.789.52-1.326s-.173-.975-.52-1.313c-.338-.347-.767-.52-1.287-.52-.52 0-.949.173-1.287.52-.338.338-.507.776-.507 1.313 0 .537.17.98.507 1.326zm7.124-5.356a1.02 1.02 0 01-1.027-1.027c0-.277.1-.52.3-.728a.998.998 0 01.727-.312.97.97 0 01.728.312c.208.208.312.45.312.728 0 .277-.104.52-.312.728a.99.99 0 01-.728.299zm-.832 7.28V16h1.677v6.5h-1.677zm3.212 0v-9.49h1.677v9.49h-1.677zm8.152-6.5h1.677v6.5h-1.677v-.767c-.503.633-1.21.949-2.12.949-.866 0-1.611-.33-2.235-.988-.615-.667-.923-1.482-.923-2.444s.308-1.772.923-2.431c.624-.667 1.37-1.001 2.236-1.001.91 0 1.616.316 2.119.949V16zm-3.094 4.576c.338.338.767.507 1.287.507.52 0 .949-.169 1.287-.507.347-.347.52-.789.52-1.326s-.173-.975-.52-1.313c-.338-.347-.767-.52-1.287-.52-.52 0-.95.173-1.287.52-.338.338-.507.776-.507 1.313 0 .537.169.98.507 1.326zm10.075-4.758c.875 0 1.62.334 2.236 1.001.624.659.936 1.469.936 2.431s-.312 1.777-.936 2.444c-.616.659-1.361.988-2.236.988-.91 0-1.612-.316-2.106-.949v.767h-1.677v-9.1h1.677v3.367c.494-.633 1.196-.949 2.106-.949zm-1.599 4.758c.338.338.767.507 1.287.507.52 0 .949-.169 1.287-.507.346-.347.52-.789.52-1.326s-.174-.975-.52-1.313c-.338-.347-.767-.52-1.287-.52-.52 0-.949.173-1.287.52-.338.338-.507.776-.507 1.313 0 .537.169.98.507 1.326zm5.953 1.924v-9.49h1.677v9.49h-1.677zm4.629-2.561c.226.815.837 1.222 1.833 1.222.642 0 1.127-.217 1.456-.65l1.352.78c-.641.927-1.586 1.391-2.834 1.391-1.074 0-1.937-.325-2.587-.975-.65-.65-.975-1.469-.975-2.457 0-.98.321-1.794.962-2.444.642-.659 1.465-.988 2.47-.988.954 0 1.738.33 2.353.988.624.659.936 1.473.936 2.444 0 .217-.021.446-.065.689h-4.901zm-.026-1.3h3.315c-.095-.442-.294-.771-.598-.988a1.664 1.664 0 00-1.014-.325c-.45 0-.823.117-1.118.351-.294.225-.489.546-.585.962zm14.951 3.055c-.667.659-1.482.988-2.444.988s-1.777-.33-2.444-.988c-.659-.667-.988-1.482-.988-2.444s.329-1.772.988-2.431c.667-.667 1.482-1.001 2.444-1.001s1.777.334 2.444 1.001c.667.659 1.001 1.469 1.001 2.431s-.334 1.777-1.001 2.444zm-3.705-1.157c.338.338.758.507 1.261.507.503 0 .923-.169 1.261-.507.338-.338.507-.767.507-1.287 0-.52-.169-.949-.507-1.287-.338-.338-.758-.507-1.261-.507-.503 0-.923.169-1.261.507-.329.338-.494.767-.494 1.287 0 .52.165.949.494 1.287zm9.5-4.719c.71 0 1.295.238 1.755.715.468.477.702 1.135.702 1.976V22.5h-1.677v-3.783c0-.433-.117-.763-.351-.988-.234-.234-.546-.351-.936-.351-.434 0-.78.134-1.04.403s-.39.672-.39 1.209v3.51h-1.677V16h1.677v.728c.407-.607 1.053-.91 1.937-.91zm10.857 1.794h-1.469v2.704c0 .225.056.39.169.494.112.104.277.165.494.182.216.009.485.004.806-.013V22.5c-1.153.13-1.968.022-2.444-.325-.468-.347-.702-.966-.702-1.859v-2.704h-1.131V16h1.131v-1.313l1.677-.507V16h1.469v1.612zm4.796-1.794c.711 0 1.296.238 1.755.715.468.477.702 1.135.702 1.976V22.5h-1.677v-3.783c0-.433-.117-.763-.351-.988-.234-.234-.546-.351-.936-.351-.433 0-.78.134-1.04.403s-.39.672-.39 1.209v3.51h-1.677v-9.1h1.677v3.328c.407-.607 1.053-.91 1.937-.91zm5.306 4.121c.225.815.836 1.222 1.833 1.222.641 0 1.127-.217 1.456-.65l1.352.78c-.641.927-1.586 1.391-2.834 1.391-1.075 0-1.937-.325-2.587-.975-.65-.65-.975-1.469-.975-2.457 0-.98.321-1.794.962-2.444.641-.659 1.465-.988 2.47-.988.953 0 1.738.33 2.353.988.624.659.936 1.473.936 2.444 0 .217-.022.446-.065.689h-4.901zm-.026-1.3h3.315c-.095-.442-.295-.771-.598-.988a1.668 1.668 0 00-1.014-.325c-.451 0-.823.117-1.118.351-.295.225-.49.546-.585.962zM74.33 46.5l-.924-2.772h-6.138l-.924 2.772h-3.278l5.39-15.4h3.762l5.412 15.4h-3.3zm-6.094-5.61h4.224l-2.112-6.292-2.112 6.292zm17.16-5.698c1.48 0 2.742.565 3.783 1.694 1.056 1.115 1.584 2.486 1.584 4.114 0 1.628-.528 3.007-1.584 4.136-1.041 1.115-2.302 1.672-3.784 1.672-1.54 0-2.728-.535-3.564-1.606V50.9h-2.838V35.5h2.838v1.298c.836-1.07 2.024-1.606 3.564-1.606zm-2.707 8.052c.572.572 1.298.858 2.178.858.88 0 1.606-.286 2.178-.858.587-.587.88-1.335.88-2.244 0-.91-.293-1.65-.88-2.222-.572-.587-1.298-.88-2.178-.88-.88 0-1.606.293-2.178.88-.572.572-.858 1.313-.858 2.222 0 .91.286 1.657.858 2.244zm16.478-8.052c1.481 0 2.742.565 3.784 1.694 1.056 1.115 1.584 2.486 1.584 4.114 0 1.628-.528 3.007-1.584 4.136-1.042 1.115-2.303 1.672-3.784 1.672-1.54 0-2.728-.535-3.564-1.606V50.9h-2.838V35.5h2.838v1.298c.836-1.07 2.024-1.606 3.564-1.606zm-2.706 8.052c.572.572 1.298.858 2.178.858.88 0 1.606-.286 2.178-.858.586-.587.88-1.335.88-2.244 0-.91-.294-1.65-.88-2.222-.572-.587-1.298-.88-2.178-.88-.88 0-1.606.293-2.178.88-.572.572-.858 1.313-.858 2.222 0 .91.286 1.657.858 2.244zm10.075 3.256V30.44h2.838V46.5h-2.838zm7.834-4.334c.381 1.379 1.415 2.068 3.102 2.068 1.085 0 1.906-.367 2.464-1.1l2.288 1.32c-1.086 1.57-2.684 2.354-4.796 2.354-1.819 0-3.278-.55-4.378-1.65-1.1-1.1-1.65-2.486-1.65-4.158 0-1.657.542-3.036 1.628-4.136 1.085-1.115 2.478-1.672 4.18-1.672 1.613 0 2.94.557 3.982 1.672 1.056 1.115 1.584 2.493 1.584 4.136 0 .367-.037.755-.11 1.166h-8.294zm-.044-2.2h5.61c-.162-.748-.499-1.305-1.012-1.672a2.822 2.822 0 00-1.716-.55c-.763 0-1.394.198-1.892.594-.499.381-.829.924-.99 1.628zm21.319 6.842c-1.525 0-2.809-.337-3.85-1.012a5.528 5.528 0 01-2.2-2.794l2.596-1.518c.601 1.57 1.782 2.354 3.542 2.354.851 0 1.474-.154 1.87-.462.396-.308.594-.697.594-1.166 0-.543-.242-.96-.726-1.254-.484-.308-1.349-.638-2.596-.99a17.024 17.024 0 01-1.76-.616 8.42 8.42 0 01-1.43-.814 3.49 3.49 0 01-1.078-1.32c-.249-.528-.374-1.144-.374-1.848 0-1.393.491-2.5 1.474-3.322.997-.836 2.193-1.254 3.586-1.254 1.247 0 2.339.308 3.278.924.953.601 1.694 1.445 2.222 2.53l-2.552 1.474c-.616-1.32-1.599-1.98-2.948-1.98-.631 0-1.129.147-1.496.44a1.335 1.335 0 00-.528 1.1c0 .484.198.88.594 1.188.411.293 1.188.616 2.332.968.469.147.821.264 1.056.352.249.073.579.198.99.374.425.161.748.315.968.462.235.147.499.345.792.594.293.25.513.506.66.77.161.264.293.587.396.968.117.367.176.77.176 1.21 0 1.423-.521 2.552-1.562 3.388-1.027.836-2.369 1.254-4.026 1.254zm13.406-8.58h-2.486v4.576c0 .381.095.66.286.836.191.176.469.279.836.308.367.015.821.007 1.364-.022V46.5c-1.951.22-3.329.037-4.136-.55-.792-.587-1.188-1.635-1.188-3.146v-4.576h-1.914V35.5h1.914v-2.222l2.838-.858v3.08h2.486v2.728zm11.029 6.908c-1.129 1.115-2.508 1.672-4.136 1.672-1.628 0-3.007-.557-4.136-1.672-1.115-1.13-1.672-2.508-1.672-4.136 0-1.628.557-3 1.672-4.114 1.129-1.13 2.508-1.694 4.136-1.694 1.628 0 3.007.565 4.136 1.694 1.129 1.115 1.694 2.486 1.694 4.114 0 1.628-.565 3.007-1.694 4.136zm-6.27-1.958c.572.572 1.283.858 2.134.858s1.562-.286 2.134-.858c.572-.572.858-1.298.858-2.178 0-.88-.286-1.606-.858-2.178-.572-.572-1.283-.858-2.134-.858s-1.562.286-2.134.858c-.557.572-.836 1.298-.836 2.178 0 .88.279 1.606.836 2.178zm12.799-5.786c.264-.704.696-1.232 1.298-1.584a4.05 4.05 0 012.046-.528v3.168c-.866-.103-1.643.073-2.332.528-.675.455-1.012 1.21-1.012 2.266V46.5h-2.838v-11h2.838v1.892zm6.993 4.774c.382 1.379 1.416 2.068 3.102 2.068 1.086 0 1.907-.367 2.464-1.1l2.288 1.32c-1.085 1.57-2.684 2.354-4.796 2.354-1.818 0-3.278-.55-4.378-1.65-1.1-1.1-1.65-2.486-1.65-4.158 0-1.657.543-3.036 1.628-4.136 1.086-1.115 2.479-1.672 4.18-1.672 1.614 0 2.941.557 3.982 1.672 1.056 1.115 1.584 2.493 1.584 4.136 0 .367-.036.755-.11 1.166h-8.294zm-.044-2.2h5.61c-.161-.748-.498-1.305-1.012-1.672a2.818 2.818 0 00-1.716-.55c-.762 0-1.393.198-1.892.594-.498.381-.828.924-.99 1.628z" fill="#fff"/><rect x=".5" y=".5" width="244" height="59" rx="3.5" stroke="#fff"/></svg>