<svg width="245" height="60" fill="none" xmlns="http://www.w3.org/2000/svg"><rect x=".5" y=".5" width="244" height="59" rx="3.5" fill="#161E27"/><circle cx="30" cy="30" r="21.5" stroke="#8D979E"/><g clip-path="url(#clip0_131_100)"><path fill-rule="evenodd" clip-rule="evenodd" d="M26.003 20.351l10.729 6.472-2.25 2.313-8.479-8.785zm11.771 7.116L42 30.015l-4.226 2.547-2.442-2.547 2.442-2.548zm-1.07 5.71l-10.701 6.5 8.479-8.784 2.222 2.284zM24 40V20l9.631 10.015L24 40z" fill="#fff"/></g><path d="M69.695 22.5l-.546-1.638h-3.627l-.546 1.638h-1.937l3.185-9.1h2.223l3.198 9.1h-1.95zm-3.601-3.315h2.496l-1.248-3.718-1.248 3.718zm9.97-3.367c.711 0 1.296.238 1.756.715.468.477.702 1.135.702 1.976V22.5h-1.677v-3.783c0-.433-.117-.763-.351-.988-.234-.234-.546-.351-.936-.351-.434 0-.78.134-1.04.403s-.39.672-.39 1.209v3.51H72.45V16h1.677v.728c.407-.607 1.053-.91 1.937-.91zm8.817-2.418h1.677v9.1H84.88v-.767c-.493.633-1.195.949-2.105.949-.876 0-1.626-.33-2.25-.988-.615-.667-.922-1.482-.922-2.444s.307-1.772.922-2.431c.624-.667 1.374-1.001 2.25-1.001.91 0 1.611.316 2.105.949V13.4zm-3.094 7.176c.346.338.78.507 1.3.507s.948-.169 1.287-.507c.338-.347.507-.789.507-1.326s-.17-.975-.507-1.313c-.338-.347-.767-.52-1.287-.52-.52 0-.954.173-1.3.52-.339.338-.508.776-.508 1.313 0 .537.17.98.508 1.326zm7.981-3.458a1.76 1.76 0 01.767-.936 2.394 2.394 0 011.21-.312v1.872a2.002 2.002 0 00-1.379.312c-.398.269-.598.715-.598 1.339V22.5h-1.677V16h1.677v1.118zm8.254 4.576c-.668.659-1.482.988-2.444.988s-1.777-.33-2.444-.988c-.659-.667-.988-1.482-.988-2.444s.33-1.772.988-2.431c.667-.667 1.482-1.001 2.444-1.001s1.776.334 2.444 1.001c.667.659 1 1.469 1 2.431s-.333 1.777-1 2.444zm-3.705-1.157c.338.338.758.507 1.26.507.504 0 .924-.169 1.262-.507.338-.338.507-.767.507-1.287 0-.52-.17-.949-.507-1.287-.338-.338-.758-.507-1.261-.507-.503 0-.923.169-1.261.507-.33.338-.494.767-.494 1.287 0 .52.165.949.494 1.287zm6.718-5.317a1.018 1.018 0 01-1.027-1.027c0-.277.099-.52.299-.728a.997.997 0 01.728-.312c.286 0 .528.104.728.312.208.208.312.45.312.728 0 .277-.104.52-.312.728a.99.99 0 01-.728.299zm-.832 7.28V16h1.677v6.5h-1.677zm8.138-9.1h1.677v9.1h-1.677v-.767c-.494.633-1.196.949-2.106.949-.875 0-1.625-.33-2.249-.988-.615-.667-.923-1.482-.923-2.444s.308-1.772.923-2.431c.624-.667 1.374-1.001 2.249-1.001.91 0 1.612.316 2.106.949V13.4zm-3.094 7.176c.347.338.78.507 1.3.507s.949-.169 1.287-.507c.338-.347.507-.789.507-1.326s-.169-.975-.507-1.313c-.338-.347-.767-.52-1.287-.52-.52 0-.953.173-1.3.52-.338.338-.507.776-.507 1.313 0 .537.169.98.507 1.326zM120.73 22.5l-.546-1.638h-3.627l-.546 1.638h-1.937l3.185-9.1h2.223l3.198 9.1h-1.95zm-3.601-3.315h2.496l-1.248-3.718-1.248 3.718zm10.14-3.367c.875 0 1.62.334 2.236 1.001.624.659.936 1.469.936 2.431s-.312 1.777-.936 2.444c-.616.659-1.361.988-2.236.988-.91 0-1.612-.316-2.106-.949V25.1h-1.677V16h1.677v.767c.494-.633 1.196-.949 2.106-.949zm-1.599 4.758c.338.338.767.507 1.287.507.52 0 .949-.169 1.287-.507.346-.347.52-.789.52-1.326s-.174-.975-.52-1.313c-.338-.347-.767-.52-1.287-.52-.52 0-.949.173-1.287.52-.338.338-.507.776-.507 1.313 0 .537.169.98.507 1.326zm9.736-4.758c.876 0 1.621.334 2.236 1.001.624.659.936 1.469.936 2.431s-.312 1.777-.936 2.444c-.615.659-1.36.988-2.236.988-.91 0-1.612-.316-2.106-.949V25.1h-1.677V16h1.677v.767c.494-.633 1.196-.949 2.106-.949zm-1.599 4.758c.338.338.767.507 1.287.507.52 0 .949-.169 1.287-.507.347-.347.52-.789.52-1.326s-.173-.975-.52-1.313c-.338-.347-.767-.52-1.287-.52-.52 0-.949.173-1.287.52-.338.338-.507.776-.507 1.313 0 .537.169.98.507 1.326zm14.742 1.118c-.667.659-1.482.988-2.444.988s-1.777-.33-2.444-.988c-.659-.667-.988-1.482-.988-2.444s.329-1.772.988-2.431c.667-.667 1.482-1.001 2.444-1.001s1.777.334 2.444 1.001c.667.659 1.001 1.469 1.001 2.431s-.334 1.777-1.001 2.444zm-3.705-1.157c.338.338.758.507 1.261.507.503 0 .923-.169 1.261-.507.338-.338.507-.767.507-1.287 0-.52-.169-.949-.507-1.287-.338-.338-.758-.507-1.261-.507-.503 0-.923.169-1.261.507-.329.338-.494.767-.494 1.287 0 .52.165.949.494 1.287zm9.5-4.719c.711 0 1.296.238 1.755.715.468.477.702 1.135.702 1.976V22.5h-1.677v-3.783c0-.433-.117-.763-.351-.988-.234-.234-.546-.351-.936-.351-.433 0-.78.134-1.04.403s-.39.672-.39 1.209v3.51h-1.677V16h1.677v.728c.407-.607 1.053-.91 1.937-.91zm-74.8 22.41v1.188c0 2.2-.704 3.982-2.112 5.346-1.408 1.364-3.227 2.046-5.456 2.046-2.376 0-4.349-.77-5.918-2.31-1.555-1.555-2.332-3.447-2.332-5.676 0-2.244.77-4.143 2.31-5.698 1.555-1.555 3.476-2.332 5.764-2.332 1.437 0 2.75.33 3.938.99 1.188.645 2.112 1.51 2.772 2.596l-2.596 1.496c-.367-.63-.924-1.144-1.672-1.54-.733-.396-1.555-.594-2.464-.594-1.467 0-2.677.484-3.63 1.452-.939.953-1.408 2.163-1.408 3.63 0 1.452.477 2.655 1.43 3.608.968.939 2.244 1.408 3.828 1.408 1.173 0 2.141-.257 2.904-.77a3.92 3.92 0 001.584-2.156h-4.664v-2.684h7.722zm15.117 6.27c-1.554 1.54-3.446 2.31-5.676 2.31-2.229 0-4.12-.77-5.676-2.31C81.77 42.943 81 41.044 81 38.8s.77-4.136 2.31-5.676c1.555-1.555 3.447-2.332 5.676-2.332 2.23 0 4.122.777 5.676 2.332 1.555 1.54 2.332 3.432 2.332 5.676s-.777 4.143-2.332 5.698zm-9.218-2.068c.954.939 2.134 1.408 3.542 1.408s2.59-.47 3.542-1.408c.954-.953 1.43-2.163 1.43-3.63s-.476-2.677-1.43-3.63c-.953-.953-2.134-1.43-3.542-1.43s-2.588.477-3.542 1.43c-.953.953-1.43 2.163-1.43 3.63s.477 2.677 1.43 3.63zm26.642 2.068c-1.554 1.54-3.446 2.31-5.676 2.31-2.229 0-4.121-.77-5.676-2.31-1.54-1.555-2.31-3.454-2.31-5.698s.77-4.136 2.31-5.676c1.555-1.555 3.447-2.332 5.676-2.332 2.23 0 4.122.777 5.676 2.332 1.555 1.54 2.332 3.432 2.332 5.676s-.777 4.143-2.332 5.698zm-9.218-2.068c.954.939 2.134 1.408 3.542 1.408s2.589-.47 3.542-1.408c.954-.953 1.43-2.163 1.43-3.63s-.476-2.677-1.43-3.63c-.953-.953-2.134-1.43-3.542-1.43s-2.588.477-3.542 1.43c-.953.953-1.43 2.163-1.43 3.63s.477 2.677 1.43 3.63zm28.798-4.202v1.188c0 2.2-.704 3.982-2.112 5.346-1.408 1.364-3.227 2.046-5.456 2.046-2.376 0-4.349-.77-5.918-2.31-1.555-1.555-2.332-3.447-2.332-5.676 0-2.244.77-4.143 2.31-5.698 1.555-1.555 3.476-2.332 5.764-2.332 1.437 0 2.75.33 3.938.99 1.188.645 2.112 1.51 2.772 2.596l-2.596 1.496c-.367-.63-.924-1.144-1.672-1.54-.733-.396-1.555-.594-2.464-.594-1.467 0-2.677.484-3.63 1.452-.939.953-1.408 2.163-1.408 3.63 0 1.452.477 2.655 1.43 3.608.968.939 2.244 1.408 3.828 1.408 1.173 0 2.141-.257 2.904-.77a3.922 3.922 0 001.584-2.156h-4.664v-2.684h7.722zm5.196 5.368h5.874V46.5h-8.91V31.1h3.036v12.496zm10.634 0h6.49V46.5h-9.526V31.1h9.416v2.904h-6.38v3.278h5.83v2.86h-5.83v3.454zM167.367 31.1c1.482 0 2.728.499 3.74 1.496s1.518 2.222 1.518 3.674-.506 2.677-1.518 3.674c-1.012.997-2.258 1.496-3.74 1.496h-2.706v5.06h-3.036V31.1h5.742zm0 7.502c.646 0 1.181-.22 1.606-.66.426-.455.638-1.012.638-1.672 0-.675-.212-1.232-.638-1.672-.425-.44-.96-.66-1.606-.66h-2.706v4.664h2.706zm10.271 4.994h5.874V46.5h-8.91V31.1h3.036v12.496zm17.928 2.904l-.924-2.772h-6.138l-.924 2.772h-3.278l5.39-15.4h3.762l5.412 15.4h-3.3zm-6.094-5.61h4.224l-2.112-6.292-2.112 6.292zm21.08-9.79l-5.28 9.394V46.5h-3.014v-6.006L197 31.1h3.432l3.344 6.424 3.344-6.424h3.432z" fill="#fff"/><rect x=".5" y=".5" width="244" height="59" rx="3.5" stroke="#fff"/><defs><clipPath id="clip0_131_100"><path fill="#fff" transform="translate(24 20)" d="M0 0h18v20H0z"/></clipPath></defs></svg>