<svg width="245" height="60" fill="none" xmlns="http://www.w3.org/2000/svg"><rect x=".5" y=".5" width="244" height="59" rx="3.5" fill="#161E27"/><circle cx="30" cy="30" r="21.5" stroke="#8D979E"/><g clip-path="url(#clip0_131_407)"><path fill-rule="evenodd" clip-rule="evenodd" d="M41 19l-11.795 1.524v8.946H41V19zm-12.855 1.657L19 21.849v7.62h9.145v-8.812zM19 30.53v7.62l9.145 1.193V30.53H19zm10.205 8.946L41 41V30.53H29.205v8.946z" fill="#fff"/></g><path d="M67.459 13.4c1.248 0 2.288.438 3.12 1.313.84.875 1.261 1.954 1.261 3.237 0 1.283-.42 2.362-1.261 3.237-.832.875-1.872 1.313-3.12 1.313h-3.614v-9.1h3.614zm0 7.384c.789 0 1.43-.26 1.924-.78.494-.529.741-1.213.741-2.054 0-.84-.247-1.521-.741-2.041-.494-.529-1.135-.793-1.924-.793h-1.82v5.668h1.82zm11.114.91c-.668.659-1.482.988-2.444.988s-1.777-.33-2.444-.988c-.66-.667-.988-1.482-.988-2.444s.329-1.772.988-2.431c.667-.667 1.482-1.001 2.444-1.001s1.776.334 2.444 1.001c.667.659 1 1.469 1 2.431s-.333 1.777-1 2.444zm-3.705-1.157c.338.338.758.507 1.26.507.503 0 .924-.169 1.262-.507.338-.338.507-.767.507-1.287 0-.52-.17-.949-.507-1.287-.338-.338-.759-.507-1.261-.507-.503 0-.923.169-1.261.507-.33.338-.494.767-.494 1.287 0 .52.164.949.494 1.287zM87.818 16H89.6l-2.067 6.5h-1.599l-1.196-3.939-1.196 3.939h-1.599L79.875 16h1.781l1.105 3.991L83.944 16h1.586l1.183 4.004L87.818 16zm6.3-.182c.71 0 1.295.238 1.754.715.468.477.702 1.135.702 1.976V22.5h-1.677v-3.783c0-.433-.117-.763-.35-.988-.235-.234-.547-.351-.937-.351-.433 0-.78.134-1.04.403s-.39.672-.39 1.209v3.51h-1.677V16h1.677v.728c.408-.607 1.053-.91 1.937-.91zm3.888 6.682v-9.49h1.677v9.49h-1.677zm8.75-.806c-.667.659-1.482.988-2.444.988s-1.776-.33-2.444-.988c-.658-.667-.988-1.482-.988-2.444s.33-1.772.988-2.431c.668-.667 1.482-1.001 2.444-1.001s1.777.334 2.444 1.001c.668.659 1.001 1.469 1.001 2.431s-.333 1.777-1.001 2.444zm-3.705-1.157c.338.338.759.507 1.261.507.503 0 .923-.169 1.261-.507.338-.338.507-.767.507-1.287 0-.52-.169-.949-.507-1.287-.338-.338-.758-.507-1.261-.507-.502 0-.923.169-1.261.507-.329.338-.494.767-.494 1.287 0 .52.165.949.494 1.287zM113.877 16h1.677v6.5h-1.677v-.767c-.503.633-1.209.949-2.119.949-.867 0-1.612-.33-2.236-.988-.615-.667-.923-1.482-.923-2.444s.308-1.772.923-2.431c.624-.667 1.369-1.001 2.236-1.001.91 0 1.616.316 2.119.949V16zm-3.094 4.576c.338.338.767.507 1.287.507.52 0 .949-.169 1.287-.507.347-.347.52-.789.52-1.326s-.173-.975-.52-1.313c-.338-.347-.767-.52-1.287-.52-.52 0-.949.173-1.287.52-.338.338-.507.776-.507 1.313 0 .537.169.98.507 1.326zm11.219-7.176h1.677v9.1h-1.677v-.767c-.494.633-1.196.949-2.106.949-.876 0-1.625-.33-2.249-.988-.616-.667-.923-1.482-.923-2.444s.307-1.772.923-2.431c.624-.667 1.373-1.001 2.249-1.001.91 0 1.612.316 2.106.949V13.4zm-3.094 7.176c.346.338.78.507 1.3.507s.949-.169 1.287-.507c.338-.347.507-.789.507-1.326s-.169-.975-.507-1.313c-.338-.347-.767-.52-1.287-.52-.52 0-.954.173-1.3.52-.338.338-.507.776-.507 1.313 0 .537.169.98.507 1.326zm13.051-5.746c-.918-.07-1.378.299-1.378 1.105V16h1.378v1.612h-1.378V22.5h-1.677v-4.888h-.936V16h.936v-.065c0-.919.256-1.616.767-2.093.512-.477 1.274-.685 2.288-.624v1.612zm6.066 6.864c-.668.659-1.482.988-2.444.988s-1.777-.33-2.444-.988c-.659-.667-.988-1.482-.988-2.444s.329-1.772.988-2.431c.667-.667 1.482-1.001 2.444-1.001s1.776.334 2.444 1.001c.667.659 1.001 1.469 1.001 2.431s-.334 1.777-1.001 2.444zm-3.705-1.157c.338.338.758.507 1.261.507.502 0 .923-.169 1.261-.507.338-.338.507-.767.507-1.287 0-.52-.169-.949-.507-1.287-.338-.338-.759-.507-1.261-.507-.503 0-.923.169-1.261.507-.33.338-.494.767-.494 1.287 0 .52.164.949.494 1.287zm7.562-3.419c.156-.416.412-.728.767-.936a2.394 2.394 0 011.209-.312v1.872a2 2 0 00-1.378.312c-.398.269-.598.715-.598 1.339V22.5h-1.677V16h1.677v1.118zM67.642 46.5L63.33 31.1h3.19l2.948 11.418L72.68 31.1h2.596l3.234 11.418L81.458 31.1h3.19l-4.312 15.4h-3.454l-2.904-10.164L71.096 46.5h-3.454zm19.613-12.32a1.725 1.725 0 01-1.738-1.738c0-.47.169-.88.506-1.232.352-.352.763-.528 1.232-.528.484 0 .895.176 1.232.528.352.352.528.763.528 1.232 0 .47-.176.88-.528 1.232a1.677 1.677 0 01-1.232.506zM85.847 46.5v-11h2.838v11h-2.838zm11.551-11.308c1.203 0 2.193.403 2.97 1.21.792.807 1.188 1.921 1.188 3.344V46.5h-2.838v-6.402c0-.733-.198-1.29-.594-1.672-.396-.396-.924-.594-1.584-.594-.733 0-1.32.227-1.76.682-.44.455-.66 1.137-.66 2.046v5.94h-2.838v-11h2.838v1.232c.69-1.027 1.782-1.54 3.278-1.54zm14.92-4.092h2.838v15.4h-2.838v-1.298c-.836 1.07-2.024 1.606-3.564 1.606-1.482 0-2.75-.557-3.806-1.672-1.042-1.13-1.562-2.508-1.562-4.136 0-1.628.52-3 1.562-4.114 1.056-1.13 2.324-1.694 3.806-1.694 1.54 0 2.728.535 3.564 1.606V31.1zm-5.236 12.144c.586.572 1.32.858 2.2.858.88 0 1.606-.286 2.178-.858.572-.587.858-1.335.858-2.244 0-.91-.286-1.65-.858-2.222-.572-.587-1.298-.88-2.178-.88-.88 0-1.614.293-2.2.88-.572.572-.858 1.313-.858 2.222 0 .91.286 1.657.858 2.244zm20.041 1.892c-1.129 1.115-2.508 1.672-4.136 1.672-1.628 0-3.007-.557-4.136-1.672-1.115-1.13-1.672-2.508-1.672-4.136 0-1.628.557-3 1.672-4.114 1.129-1.13 2.508-1.694 4.136-1.694 1.628 0 3.007.565 4.136 1.694 1.129 1.115 1.694 2.486 1.694 4.114 0 1.628-.565 3.007-1.694 4.136zm-6.27-1.958c.572.572 1.283.858 2.134.858s1.562-.286 2.134-.858c.572-.572.858-1.298.858-2.178 0-.88-.286-1.606-.858-2.178-.572-.572-1.283-.858-2.134-.858s-1.562.286-2.134.858c-.557.572-.836 1.298-.836 2.178 0 .88.279 1.606.836 2.178zM142.77 35.5h3.014l-3.498 11h-2.706l-2.024-6.666-2.024 6.666h-2.706l-3.498-11h3.014l1.87 6.754 2.002-6.754h2.684l2.002 6.776 1.87-6.776zm6.474 3.124c0 .293.191.535.572.726.396.176.873.337 1.43.484.557.132 1.115.308 1.672.528a3.097 3.097 0 011.408 1.056c.396.499.594 1.122.594 1.87 0 1.13-.425 2.002-1.276 2.618-.836.601-1.885.902-3.146.902-2.259 0-3.799-.873-4.62-2.618l2.464-1.386c.323.953 1.041 1.43 2.156 1.43 1.012 0 1.518-.315 1.518-.946 0-.293-.198-.528-.594-.704a7.37 7.37 0 00-1.408-.506 14.843 14.843 0 01-1.672-.55 3.558 3.558 0 01-1.43-1.034c-.381-.484-.572-1.085-.572-1.804 0-1.085.396-1.936 1.188-2.552.807-.63 1.804-.946 2.992-.946.895 0 1.709.205 2.442.616a4.346 4.346 0 011.738 1.716l-2.42 1.32c-.352-.748-.939-1.122-1.76-1.122-.367 0-.675.08-.924.242a.76.76 0 00-.352.66z" fill="#fff"/><rect x=".5" y=".5" width="244" height="59" rx="3.5" stroke="#fff"/><defs><clipPath id="clip0_131_407"><path fill="#fff" transform="translate(19 19)" d="M0 0h22v22H0z"/></clipPath></defs></svg>