<svg width="16" height="14" fill="none" xmlns="http://www.w3.org/2000/svg"><path d="M10.648.24l4.181 4.182A3.93 3.93 0 0116 7.209c0 1.004-.39 2.063-1.17 2.788l-3.512 3.623H9.254l4.572-4.571c.501-.502.724-1.17.724-1.784 0-.67-.223-1.282-.724-1.784L8.696.352 10.649.24z" fill="#FC0"/><path fill-rule="evenodd" clip-rule="evenodd" d="M12.99 6.262L7.08.296.167.52 0 7.377l5.965 5.965c.558.557 1.45.557 1.951 0l5.13-5.13c.501-.501.501-1.393-.056-1.95zM4.07 2.749c.446.446.446 1.227 0 1.673-.446.446-1.227.446-1.617 0-.446-.446-.446-1.227 0-1.673a1.144 1.144 0 011.617 0z" fill="#FC0"/></svg>