<svg width="128" height="29" fill="none" xmlns="http://www.w3.org/2000/svg"><g clip-path="url(#clip0_130_471)"><path d="M73.8 8.92C74.94 4.34 72.16.55 65.35.55H50.59l-5.53 22.4 3.21 5.51h10.5c6.88 0 12.21-3.21 13.58-8.79.69-2.86-.11-4.86-1.91-5.86v-.07a7.78 7.78 0 003.36-4.82zm-9 10.57c-.28 1.17-1.07 2.37-4.34 2.37h-6.7l1.17-4.8h6.67c3.23-.01 3.47 1.22 3.16 2.43h.04zm1.34-10.42c-.24.9-.93 2-3.75 2h-6l1-3.9h6c2.85-.02 2.99.9 2.75 1.9zm16.95 8.58h13.44l1.53-6.6H84.71l1.04-3.9h13.22l1.53-6.6H78.8l-6.88 27.9H96.5l1.61-6.6H82.1l.99-4.2zM102.38.55l-1.54 6.6h8.03l-5.27 21.3h8.43l5.28-21.3h8.6l1.65-6.6h-25.18z" fill="#14A0FF"/><path d="M8.82 28.45H.32L4 13.55l.85-2.25-2.25 2.25-2.5 2.53L0 8.64 8.82.55h6.87l-6.87 27.9z" fill="#fff"/><path d="M39.51 16.89L36.8 12.3 49.95.55H37.7l-5 4.8L15.74 20.9 7.6 28.45h11.59l8.71-7.77 2.93 5c1 1.26 2.41 2.79 8.39 2.79h7l-6.7-11.59-.01.01zM31.76 3.81v-.06a7.69 7.69 0 00-6.64-3.2h-9.05l6.75 11.48 8.94-8.22z" fill="#fff"/></g><defs><clipPath id="clip0_130_471"><path fill="#fff" transform="translate(0 .55)" d="M0 0h127.56v27.9H0z"/></clipPath></defs></svg>