<svg width="34" height="34" viewBox="0 0 34 34" fill="none" xmlns="http://www.w3.org/2000/svg">
<circle cx="17" cy="17" r="17" fill="#5E5E5E"/>
<path fill-rule="evenodd" clip-rule="evenodd" d="M17 29C23.6274 29 29 23.6274 29 17C29 10.3726 23.6274 5 17 5C10.3726 5 5 10.3726 5 17C5 23.6274 10.3726 29 17 29ZM17 31C24.732 31 31 24.732 31 17C31 9.26801 24.732 3 17 3C9.26801 3 3 9.26801 3 17C3 24.732 9.26801 31 17 31Z" fill="#061637"/>
<path d="M11.9834 22H10.1514V16.1348C10.1514 15.4967 10.1833 14.763 10.2471 13.9336C10.2152 13.9792 10.0967 14.1182 9.8916 14.3506C9.69108 14.583 9.29688 15 8.70898 15.6016L7.66992 14.4668L10.3291 12.0059H11.9834V22Z" fill="#061637"/>
<path d="M16.7275 11.876C17.5068 11.876 18.1289 12.097 18.5938 12.5391C19.0586 12.9811 19.291 13.5827 19.291 14.3438C19.291 14.8132 19.1816 15.2393 18.9629 15.6221C18.7487 16.0003 18.3818 16.3626 17.8623 16.709C18.4456 17.1237 18.8604 17.5498 19.1064 17.9873C19.3525 18.4202 19.4756 18.8942 19.4756 19.4092C19.4756 20.2249 19.2249 20.8835 18.7236 21.3848C18.2223 21.8861 17.557 22.1367 16.7275 22.1367C15.8662 22.1367 15.1917 21.9066 14.7041 21.4463C14.2165 20.9814 13.9727 20.3206 13.9727 19.4639C13.9727 18.8896 14.0934 18.3838 14.335 17.9463C14.5811 17.5042 14.9593 17.1191 15.4697 16.791C14.9958 16.4128 14.6562 16.0322 14.4512 15.6494C14.2507 15.262 14.1504 14.8268 14.1504 14.3438C14.1504 13.5964 14.3896 12.9993 14.8682 12.5527C15.3512 12.1016 15.971 11.876 16.7275 11.876ZM15.7363 19.3682C15.7363 19.7692 15.8184 20.0882 15.9824 20.3252C16.151 20.5622 16.3903 20.6807 16.7002 20.6807C17.0374 20.6807 17.2881 20.5622 17.4521 20.3252C17.6208 20.0882 17.7051 19.7692 17.7051 19.3682C17.7051 19.0811 17.639 18.8099 17.5068 18.5547C17.3747 18.2995 17.1195 18.0055 16.7412 17.6729L16.6455 17.5771C16.3493 17.7959 16.1237 18.0465 15.9688 18.3291C15.8138 18.6071 15.7363 18.9535 15.7363 19.3682ZM16.7139 13.3184C16.4541 13.3184 16.2581 13.4141 16.126 13.6055C15.9938 13.7923 15.9277 14.0612 15.9277 14.4121C15.9277 14.7129 15.9824 14.9749 16.0918 15.1982C16.2012 15.4215 16.4131 15.6585 16.7275 15.9092C17.0283 15.6768 17.2334 15.4443 17.3428 15.2119C17.4567 14.9795 17.5137 14.7129 17.5137 14.4121C17.5137 13.6829 17.2471 13.3184 16.7139 13.3184Z" fill="#061637"/>
<path d="M22.4219 17.7754H20.6855V16.3604H22.4219V13.8105H23.7686V16.3604H25.5049V17.7754H23.7686V20.291H22.4219V17.7754Z" fill="#061637"/>
</svg>
