<svg width="245" height="60" viewBox="0 0 245 60" fill="none" xmlns="http://www.w3.org/2000/svg">
<rect x="0.5" y="0.5" width="244" height="59" rx="3.5" fill="#161E27"/>
<circle cx="30" cy="30" r="21.5" stroke="#8D979E"/>
<path d="M36.7101 36.5C35.8801 37.74 35.0001 38.95 33.6601 38.97C32.3201 39 31.8901 38.18 30.3701 38.18C28.8401 38.18 28.3701 38.95 27.1001 39C25.7901 39.05 24.8001 37.68 23.9601 36.47C22.2501 34 20.9401 29.45 22.7001 26.39C23.5701 24.87 25.1301 23.91 26.8201 23.88C28.1001 23.86 29.3201 24.75 30.1101 24.75C30.8901 24.75 32.3701 23.68 33.9201 23.84C34.5701 23.87 36.3901 24.1 37.5601 25.82C37.4701 25.88 35.3901 27.1 35.4101 29.63C35.4401 32.65 38.0601 33.66 38.0901 33.67C38.0601 33.74 37.6701 35.11 36.7101 36.5ZM31.0001 20.5C31.7301 19.67 32.9401 19.04 33.9401 19C34.0701 20.17 33.6001 21.35 32.9001 22.19C32.2101 23.04 31.0701 23.7 29.9501 23.61C29.8001 22.46 30.3601 21.26 31.0001 20.5Z" fill="white"/>
<path d="M69.695 22.5L69.149 20.862H65.522L64.976 22.5H63.039L66.224 13.4H68.447L71.645 22.5H69.695ZM66.094 19.185H68.59L67.342 15.467L66.094 19.185ZM76.4737 16H78.3197L75.8497 22.5H73.9387L71.4687 16H73.3147L74.8877 20.55L76.4737 16ZM83.8144 16H85.4914V22.5H83.8144V21.733C83.3118 22.3657 82.6054 22.682 81.6954 22.682C80.8288 22.682 80.0834 22.3527 79.4594 21.694C78.8441 21.0267 78.5364 20.212 78.5364 19.25C78.5364 18.288 78.8441 17.4777 79.4594 16.819C80.0834 16.1517 80.8288 15.818 81.6954 15.818C82.6054 15.818 83.3118 16.1343 83.8144 16.767V16ZM80.7204 20.576C81.0584 20.914 81.4874 21.083 82.0074 21.083C82.5274 21.083 82.9564 20.914 83.2944 20.576C83.6411 20.2293 83.8144 19.7873 83.8144 19.25C83.8144 18.7127 83.6411 18.275 83.2944 17.937C82.9564 17.5903 82.5274 17.417 82.0074 17.417C81.4874 17.417 81.0584 17.5903 80.7204 17.937C80.3824 18.275 80.2134 18.7127 80.2134 19.25C80.2134 19.7873 80.3824 20.2293 80.7204 20.576ZM87.8441 15.22C87.5668 15.22 87.3241 15.1203 87.1161 14.921C86.9168 14.713 86.8171 14.4703 86.8171 14.193C86.8171 13.9157 86.9168 13.673 87.1161 13.465C87.3241 13.257 87.5668 13.153 87.8441 13.153C88.1301 13.153 88.3728 13.257 88.5721 13.465C88.7801 13.673 88.8841 13.9157 88.8841 14.193C88.8841 14.4703 88.7801 14.713 88.5721 14.921C88.3728 15.1203 88.1301 15.22 87.8441 15.22ZM87.0121 22.5V16H88.6891V22.5H87.0121ZM90.224 22.5V13.01H91.901V22.5H90.224ZM98.3759 16H100.053V22.5H98.3759V21.733C97.8733 22.3657 97.1669 22.682 96.2569 22.682C95.3903 22.682 94.6449 22.3527 94.0209 21.694C93.4056 21.0267 93.0979 20.212 93.0979 19.25C93.0979 18.288 93.4056 17.4777 94.0209 16.819C94.6449 16.1517 95.3903 15.818 96.2569 15.818C97.1669 15.818 97.8733 16.1343 98.3759 16.767V16ZM95.2819 20.576C95.6199 20.914 96.0489 21.083 96.5689 21.083C97.0889 21.083 97.5179 20.914 97.8559 20.576C98.2026 20.2293 98.3759 19.7873 98.3759 19.25C98.3759 18.7127 98.2026 18.275 97.8559 17.937C97.5179 17.5903 97.0889 17.417 96.5689 17.417C96.0489 17.417 95.6199 17.5903 95.2819 17.937C94.9439 18.275 94.7749 18.7127 94.7749 19.25C94.7749 19.7873 94.9439 20.2293 95.2819 20.576ZM105.357 15.818C106.232 15.818 106.977 16.1517 107.593 16.819C108.217 17.4777 108.529 18.288 108.529 19.25C108.529 20.212 108.217 21.0267 107.593 21.694C106.977 22.3527 106.232 22.682 105.357 22.682C104.447 22.682 103.745 22.3657 103.251 21.733V22.5H101.574V13.4H103.251V16.767C103.745 16.1343 104.447 15.818 105.357 15.818ZM103.758 20.576C104.096 20.914 104.525 21.083 105.045 21.083C105.565 21.083 105.994 20.914 106.332 20.576C106.678 20.2293 106.852 19.7873 106.852 19.25C106.852 18.7127 106.678 18.275 106.332 17.937C105.994 17.5903 105.565 17.417 105.045 17.417C104.525 17.417 104.096 17.5903 103.758 17.937C103.42 18.275 103.251 18.7127 103.251 19.25C103.251 19.7873 103.42 20.2293 103.758 20.576ZM109.711 22.5V13.01H111.388V22.5H109.711ZM114.34 19.939C114.566 20.7537 115.177 21.161 116.173 21.161C116.815 21.161 117.3 20.9443 117.629 20.511L118.981 21.291C118.34 22.2183 117.395 22.682 116.147 22.682C115.073 22.682 114.21 22.357 113.56 21.707C112.91 21.057 112.585 20.238 112.585 19.25C112.585 18.2707 112.906 17.456 113.547 16.806C114.189 16.1473 115.012 15.818 116.017 15.818C116.971 15.818 117.755 16.1473 118.37 16.806C118.994 17.4647 119.306 18.2793 119.306 19.25C119.306 19.4667 119.285 19.6963 119.241 19.939H114.34ZM114.314 18.639H117.629C117.534 18.197 117.335 17.8677 117.031 17.651C116.737 17.4343 116.399 17.326 116.017 17.326C115.567 17.326 115.194 17.443 114.899 17.677C114.605 17.9023 114.41 18.223 114.314 18.639ZM129.265 21.694C128.598 22.3527 127.783 22.682 126.821 22.682C125.859 22.682 125.044 22.3527 124.377 21.694C123.718 21.0267 123.389 20.212 123.389 19.25C123.389 18.288 123.718 17.4777 124.377 16.819C125.044 16.1517 125.859 15.818 126.821 15.818C127.783 15.818 128.598 16.1517 129.265 16.819C129.932 17.4777 130.266 18.288 130.266 19.25C130.266 20.212 129.932 21.0267 129.265 21.694ZM125.56 20.537C125.898 20.875 126.318 21.044 126.821 21.044C127.324 21.044 127.744 20.875 128.082 20.537C128.42 20.199 128.589 19.77 128.589 19.25C128.589 18.73 128.42 18.301 128.082 17.963C127.744 17.625 127.324 17.456 126.821 17.456C126.318 17.456 125.898 17.625 125.56 17.963C125.231 18.301 125.066 18.73 125.066 19.25C125.066 19.77 125.231 20.199 125.56 20.537ZM135.06 15.818C135.77 15.818 136.355 16.0563 136.815 16.533C137.283 17.0097 137.517 17.6683 137.517 18.509V22.5H135.84V18.717C135.84 18.2837 135.723 17.9543 135.489 17.729C135.255 17.495 134.943 17.378 134.553 17.378C134.119 17.378 133.773 17.5123 133.513 17.781C133.253 18.0497 133.123 18.4527 133.123 18.99V22.5H131.446V16H133.123V16.728C133.53 16.1213 134.176 15.818 135.06 15.818ZM145.917 17.612H144.448V20.316C144.448 20.5413 144.504 20.706 144.617 20.81C144.729 20.914 144.894 20.9747 145.111 20.992C145.327 21.0007 145.596 20.9963 145.917 20.979V22.5C144.764 22.63 143.949 22.5217 143.473 22.175C143.005 21.8283 142.771 21.2087 142.771 20.316V17.612H141.64V16H142.771V14.687L144.448 14.18V16H145.917V17.612ZM150.713 15.818C151.424 15.818 152.009 16.0563 152.468 16.533C152.936 17.0097 153.17 17.6683 153.17 18.509V22.5H151.493V18.717C151.493 18.2837 151.376 17.9543 151.142 17.729C150.908 17.495 150.596 17.378 150.206 17.378C149.773 17.378 149.426 17.5123 149.166 17.781C148.906 18.0497 148.776 18.4527 148.776 18.99V22.5H147.099V13.4H148.776V16.728C149.183 16.1213 149.829 15.818 150.713 15.818ZM156.019 19.939C156.244 20.7537 156.855 21.161 157.852 21.161C158.493 21.161 158.979 20.9443 159.308 20.511L160.66 21.291C160.019 22.2183 159.074 22.682 157.826 22.682C156.751 22.682 155.889 22.357 155.239 21.707C154.589 21.057 154.264 20.238 154.264 19.25C154.264 18.2707 154.585 17.456 155.226 16.806C155.867 16.1473 156.691 15.818 157.696 15.818C158.649 15.818 159.434 16.1473 160.049 16.806C160.673 17.4647 160.985 18.2793 160.985 19.25C160.985 19.4667 160.963 19.6963 160.92 19.939H156.019ZM155.993 18.639H159.308C159.213 18.197 159.013 17.8677 158.71 17.651C158.415 17.4343 158.077 17.326 157.696 17.326C157.245 17.326 156.873 17.443 156.578 17.677C156.283 17.9023 156.088 18.223 155.993 18.639Z" fill="white"/>
<path d="M74.33 46.5L73.406 43.728H67.268L66.344 46.5H63.066L68.456 31.1H72.218L77.63 46.5H74.33ZM68.236 40.89H72.46L70.348 34.598L68.236 40.89ZM85.3953 35.192C86.8766 35.192 88.138 35.7567 89.1793 36.886C90.2353 38.0007 90.7633 39.372 90.7633 41C90.7633 42.628 90.2353 44.0067 89.1793 45.136C88.138 46.2507 86.8766 46.808 85.3953 46.808C83.8553 46.808 82.6673 46.2727 81.8313 45.202V50.9H78.9933V35.5H81.8313V36.798C82.6673 35.7273 83.8553 35.192 85.3953 35.192ZM82.6893 43.244C83.2613 43.816 83.9873 44.102 84.8673 44.102C85.7473 44.102 86.4733 43.816 87.0453 43.244C87.632 42.6573 87.9253 41.9093 87.9253 41C87.9253 40.0907 87.632 39.35 87.0453 38.778C86.4733 38.1913 85.7473 37.898 84.8673 37.898C83.9873 37.898 83.2613 38.1913 82.6893 38.778C82.1173 39.35 81.8313 40.0907 81.8313 41C81.8313 41.9093 82.1173 42.6573 82.6893 43.244ZM99.1668 35.192C100.648 35.192 101.909 35.7567 102.951 36.886C104.007 38.0007 104.535 39.372 104.535 41C104.535 42.628 104.007 44.0067 102.951 45.136C101.909 46.2507 100.648 46.808 99.1668 46.808C97.6268 46.808 96.4388 46.2727 95.6028 45.202V50.9H92.7648V35.5H95.6028V36.798C96.4388 35.7273 97.6268 35.192 99.1668 35.192ZM96.4608 43.244C97.0328 43.816 97.7588 44.102 98.6388 44.102C99.5188 44.102 100.245 43.816 100.817 43.244C101.403 42.6573 101.697 41.9093 101.697 41C101.697 40.0907 101.403 39.35 100.817 38.778C100.245 38.1913 99.5188 37.898 98.6388 37.898C97.7588 37.898 97.0328 38.1913 96.4608 38.778C95.8888 39.35 95.6028 40.0907 95.6028 41C95.6028 41.9093 95.8888 42.6573 96.4608 43.244ZM106.536 46.5V30.44H109.374V46.5H106.536ZM114.37 42.166C114.751 43.5447 115.785 44.234 117.472 44.234C118.557 44.234 119.378 43.8673 119.936 43.134L122.224 44.454C121.138 46.0233 119.54 46.808 117.428 46.808C115.609 46.808 114.15 46.258 113.05 45.158C111.95 44.058 111.4 42.672 111.4 41C111.4 39.3427 111.942 37.964 113.028 36.864C114.113 35.7493 115.506 35.192 117.208 35.192C118.821 35.192 120.148 35.7493 121.19 36.864C122.246 37.9787 122.774 39.3573 122.774 41C122.774 41.3667 122.737 41.7553 122.664 42.166H114.37ZM114.326 39.966H119.936C119.774 39.218 119.437 38.6607 118.924 38.294C118.425 37.9273 117.853 37.744 117.208 37.744C116.445 37.744 115.814 37.942 115.316 38.338C114.817 38.7193 114.487 39.262 114.326 39.966ZM135.645 46.808C134.12 46.808 132.836 46.4707 131.795 45.796C130.754 45.1067 130.02 44.1753 129.595 43.002L132.191 41.484C132.792 43.0533 133.973 43.838 135.733 43.838C136.584 43.838 137.207 43.684 137.603 43.376C137.999 43.068 138.197 42.6793 138.197 42.21C138.197 41.6673 137.955 41.2493 137.471 40.956C136.987 40.648 136.122 40.318 134.875 39.966C134.186 39.7607 133.599 39.5553 133.115 39.35C132.646 39.1447 132.169 38.8733 131.685 38.536C131.216 38.184 130.856 37.744 130.607 37.216C130.358 36.688 130.233 36.072 130.233 35.368C130.233 33.9747 130.724 32.8673 131.707 32.046C132.704 31.21 133.9 30.792 135.293 30.792C136.54 30.792 137.632 31.1 138.571 31.716C139.524 32.3173 140.265 33.1607 140.793 34.246L138.241 35.72C137.625 34.4 136.642 33.74 135.293 33.74C134.662 33.74 134.164 33.8867 133.797 34.18C133.445 34.4587 133.269 34.8253 133.269 35.28C133.269 35.764 133.467 36.16 133.863 36.468C134.274 36.7613 135.051 37.084 136.195 37.436C136.664 37.5827 137.016 37.7 137.251 37.788C137.5 37.8613 137.83 37.986 138.241 38.162C138.666 38.3233 138.989 38.4773 139.209 38.624C139.444 38.7707 139.708 38.9687 140.001 39.218C140.294 39.4673 140.514 39.724 140.661 39.988C140.822 40.252 140.954 40.5747 141.057 40.956C141.174 41.3227 141.233 41.726 141.233 42.166C141.233 43.5887 140.712 44.718 139.671 45.554C138.644 46.39 137.302 46.808 135.645 46.808ZM149.051 38.228H146.565V42.804C146.565 43.1853 146.66 43.464 146.851 43.64C147.042 43.816 147.32 43.9187 147.687 43.948C148.054 43.9627 148.508 43.9553 149.051 43.926V46.5C147.1 46.72 145.722 46.5367 144.915 45.95C144.123 45.3633 143.727 44.3147 143.727 42.804V38.228H141.813V35.5H143.727V33.278L146.565 32.42V35.5H149.051V38.228ZM160.08 45.136C158.951 46.2507 157.572 46.808 155.944 46.808C154.316 46.808 152.937 46.2507 151.808 45.136C150.693 44.0067 150.136 42.628 150.136 41C150.136 39.372 150.693 38.0007 151.808 36.886C152.937 35.7567 154.316 35.192 155.944 35.192C157.572 35.192 158.951 35.7567 160.08 36.886C161.209 38.0007 161.774 39.372 161.774 41C161.774 42.628 161.209 44.0067 160.08 45.136ZM153.81 43.178C154.382 43.75 155.093 44.036 155.944 44.036C156.795 44.036 157.506 43.75 158.078 43.178C158.65 42.606 158.936 41.88 158.936 41C158.936 40.12 158.65 39.394 158.078 38.822C157.506 38.25 156.795 37.964 155.944 37.964C155.093 37.964 154.382 38.25 153.81 38.822C153.253 39.394 152.974 40.12 152.974 41C152.974 41.88 153.253 42.606 153.81 43.178ZM166.609 37.392C166.873 36.688 167.305 36.16 167.907 35.808C168.523 35.456 169.205 35.28 169.953 35.28V38.448C169.087 38.3453 168.31 38.5213 167.621 38.976C166.946 39.4307 166.609 40.186 166.609 41.242V46.5H163.771V35.5H166.609V37.392ZM173.602 42.166C173.984 43.5447 175.018 44.234 176.704 44.234C177.79 44.234 178.611 43.8673 179.168 43.134L181.456 44.454C180.371 46.0233 178.772 46.808 176.66 46.808C174.842 46.808 173.382 46.258 172.282 45.158C171.182 44.058 170.632 42.672 170.632 41C170.632 39.3427 171.175 37.964 172.26 36.864C173.346 35.7493 174.739 35.192 176.44 35.192C178.054 35.192 179.381 35.7493 180.422 36.864C181.478 37.9787 182.006 39.3573 182.006 41C182.006 41.3667 181.97 41.7553 181.896 42.166H173.602ZM173.558 39.966H179.168C179.007 39.218 178.67 38.6607 178.156 38.294C177.658 37.9273 177.086 37.744 176.44 37.744C175.678 37.744 175.047 37.942 174.548 38.338C174.05 38.7193 173.72 39.262 173.558 39.966Z" fill="white"/>
<rect x="0.5" y="0.5" width="244" height="59" rx="3.5" stroke="white"/>
</svg>
