<svg width="245" height="60" viewBox="0 0 245 60" fill="none" xmlns="http://www.w3.org/2000/svg">
<rect x="0.5" y="0.5" width="244" height="59" rx="3.5" fill="#161E27"/>
<circle cx="30" cy="30" r="21.5" stroke="#8D979E"/>
<g clip-path="url(#clip0_131_100)">
<path fill-rule="evenodd" clip-rule="evenodd" d="M26.003 20.3514L36.7317 26.8228L34.4817 29.1362L26.003 20.3514ZM37.7744 27.4671L42 30.0146L37.7744 32.5622L35.3323 30.0146L37.7744 27.4671ZM36.7043 33.1772L26.003 39.6779L34.4817 30.8931L36.7043 33.1772ZM24 40V20L33.6311 30.0146L24 40Z" fill="white"/>
</g>
<path d="M69.695 22.5L69.149 20.862H65.522L64.976 22.5H63.039L66.224 13.4H68.447L71.645 22.5H69.695ZM66.094 19.185H68.59L67.342 15.467L66.094 19.185ZM76.0646 15.818C76.7753 15.818 77.3603 16.0563 77.8196 16.533C78.2876 17.0097 78.5216 17.6683 78.5216 18.509V22.5H76.8446V18.717C76.8446 18.2837 76.7276 17.9543 76.4936 17.729C76.2596 17.495 75.9476 17.378 75.5576 17.378C75.1243 17.378 74.7776 17.5123 74.5176 17.781C74.2576 18.0497 74.1276 18.4527 74.1276 18.99V22.5H72.4506V16H74.1276V16.728C74.5349 16.1213 75.1806 15.818 76.0646 15.818ZM84.8805 13.4H86.5575V22.5H84.8805V21.733C84.3865 22.3657 83.6845 22.682 82.7745 22.682C81.8992 22.682 81.1495 22.3527 80.5255 21.694C79.9102 21.0267 79.6025 20.212 79.6025 19.25C79.6025 18.288 79.9102 17.4777 80.5255 16.819C81.1495 16.1517 81.8992 15.818 82.7745 15.818C83.6845 15.818 84.3865 16.1343 84.8805 16.767V13.4ZM81.7865 20.576C82.1332 20.914 82.5665 21.083 83.0865 21.083C83.6065 21.083 84.0355 20.914 84.3735 20.576C84.7115 20.2293 84.8805 19.7873 84.8805 19.25C84.8805 18.7127 84.7115 18.275 84.3735 17.937C84.0355 17.5903 83.6065 17.417 83.0865 17.417C82.5665 17.417 82.1332 17.5903 81.7865 17.937C81.4485 18.275 81.2795 18.7127 81.2795 19.25C81.2795 19.7873 81.4485 20.2293 81.7865 20.576ZM89.7682 17.118C89.9242 16.702 90.1799 16.39 90.5352 16.182C90.8992 15.974 91.3022 15.87 91.7442 15.87V17.742C91.2329 17.6813 90.7736 17.7853 90.3662 18.054C89.9676 18.3227 89.7682 18.769 89.7682 19.393V22.5H88.0912V16H89.7682V17.118ZM98.0218 21.694C97.3545 22.3527 96.5398 22.682 95.5778 22.682C94.6158 22.682 93.8011 22.3527 93.1338 21.694C92.4751 21.0267 92.1458 20.212 92.1458 19.25C92.1458 18.288 92.4751 17.4777 93.1338 16.819C93.8011 16.1517 94.6158 15.818 95.5778 15.818C96.5398 15.818 97.3545 16.1517 98.0218 16.819C98.6891 17.4777 99.0228 18.288 99.0228 19.25C99.0228 20.212 98.6891 21.0267 98.0218 21.694ZM94.3168 20.537C94.6548 20.875 95.0751 21.044 95.5778 21.044C96.0805 21.044 96.5008 20.875 96.8388 20.537C97.1768 20.199 97.3458 19.77 97.3458 19.25C97.3458 18.73 97.1768 18.301 96.8388 17.963C96.5008 17.625 96.0805 17.456 95.5778 17.456C95.0751 17.456 94.6548 17.625 94.3168 17.963C93.9875 18.301 93.8228 18.73 93.8228 19.25C93.8228 19.77 93.9875 20.199 94.3168 20.537ZM101.035 15.22C100.757 15.22 100.515 15.1203 100.307 14.921C100.107 14.713 100.008 14.4703 100.008 14.193C100.008 13.9157 100.107 13.673 100.307 13.465C100.515 13.257 100.757 13.153 101.035 13.153C101.321 13.153 101.563 13.257 101.763 13.465C101.971 13.673 102.075 13.9157 102.075 14.193C102.075 14.4703 101.971 14.713 101.763 14.921C101.563 15.1203 101.321 15.22 101.035 15.22ZM100.203 22.5V16H101.88V22.5H100.203ZM108.341 13.4H110.018V22.5H108.341V21.733C107.847 22.3657 107.145 22.682 106.235 22.682C105.36 22.682 104.61 22.3527 103.986 21.694C103.371 21.0267 103.063 20.212 103.063 19.25C103.063 18.288 103.371 17.4777 103.986 16.819C104.61 16.1517 105.36 15.818 106.235 15.818C107.145 15.818 107.847 16.1343 108.341 16.767V13.4ZM105.247 20.576C105.594 20.914 106.027 21.083 106.547 21.083C107.067 21.083 107.496 20.914 107.834 20.576C108.172 20.2293 108.341 19.7873 108.341 19.25C108.341 18.7127 108.172 18.275 107.834 17.937C107.496 17.5903 107.067 17.417 106.547 17.417C106.027 17.417 105.594 17.5903 105.247 17.937C104.909 18.275 104.74 18.7127 104.74 19.25C104.74 19.7873 104.909 20.2293 105.247 20.576ZM120.73 22.5L120.184 20.862H116.557L116.011 22.5H114.074L117.259 13.4H119.482L122.68 22.5H120.73ZM117.129 19.185H119.625L118.377 15.467L117.129 19.185ZM127.269 15.818C128.144 15.818 128.889 16.1517 129.505 16.819C130.129 17.4777 130.441 18.288 130.441 19.25C130.441 20.212 130.129 21.0267 129.505 21.694C128.889 22.3527 128.144 22.682 127.269 22.682C126.359 22.682 125.657 22.3657 125.163 21.733V25.1H123.486V16H125.163V16.767C125.657 16.1343 126.359 15.818 127.269 15.818ZM125.67 20.576C126.008 20.914 126.437 21.083 126.957 21.083C127.477 21.083 127.906 20.914 128.244 20.576C128.59 20.2293 128.764 19.7873 128.764 19.25C128.764 18.7127 128.59 18.275 128.244 17.937C127.906 17.5903 127.477 17.417 126.957 17.417C126.437 17.417 126.008 17.5903 125.67 17.937C125.332 18.275 125.163 18.7127 125.163 19.25C125.163 19.7873 125.332 20.2293 125.67 20.576ZM135.406 15.818C136.282 15.818 137.027 16.1517 137.642 16.819C138.266 17.4777 138.578 18.288 138.578 19.25C138.578 20.212 138.266 21.0267 137.642 21.694C137.027 22.3527 136.282 22.682 135.406 22.682C134.496 22.682 133.794 22.3657 133.3 21.733V25.1H131.623V16H133.3V16.767C133.794 16.1343 134.496 15.818 135.406 15.818ZM133.807 20.576C134.145 20.914 134.574 21.083 135.094 21.083C135.614 21.083 136.043 20.914 136.381 20.576C136.728 20.2293 136.901 19.7873 136.901 19.25C136.901 18.7127 136.728 18.275 136.381 17.937C136.043 17.5903 135.614 17.417 135.094 17.417C134.574 17.417 134.145 17.5903 133.807 17.937C133.469 18.275 133.3 18.7127 133.3 19.25C133.3 19.7873 133.469 20.2293 133.807 20.576ZM148.549 21.694C147.882 22.3527 147.067 22.682 146.105 22.682C145.143 22.682 144.328 22.3527 143.661 21.694C143.002 21.0267 142.673 20.212 142.673 19.25C142.673 18.288 143.002 17.4777 143.661 16.819C144.328 16.1517 145.143 15.818 146.105 15.818C147.067 15.818 147.882 16.1517 148.549 16.819C149.216 17.4777 149.55 18.288 149.55 19.25C149.55 20.212 149.216 21.0267 148.549 21.694ZM144.844 20.537C145.182 20.875 145.602 21.044 146.105 21.044C146.608 21.044 147.028 20.875 147.366 20.537C147.704 20.199 147.873 19.77 147.873 19.25C147.873 18.73 147.704 18.301 147.366 17.963C147.028 17.625 146.608 17.456 146.105 17.456C145.602 17.456 145.182 17.625 144.844 17.963C144.515 18.301 144.35 18.73 144.35 19.25C144.35 19.77 144.515 20.199 144.844 20.537ZM154.344 15.818C155.055 15.818 155.64 16.0563 156.099 16.533C156.567 17.0097 156.801 17.6683 156.801 18.509V22.5H155.124V18.717C155.124 18.2837 155.007 17.9543 154.773 17.729C154.539 17.495 154.227 17.378 153.837 17.378C153.404 17.378 153.057 17.5123 152.797 17.781C152.537 18.0497 152.407 18.4527 152.407 18.99V22.5H150.73V16H152.407V16.728C152.814 16.1213 153.46 15.818 154.344 15.818Z" fill="white"/>
<path d="M79.544 38.228V39.416C79.544 41.616 78.84 43.398 77.432 44.762C76.024 46.126 74.2053 46.808 71.976 46.808C69.6 46.808 67.6273 46.038 66.058 44.498C64.5033 42.9433 63.726 41.0513 63.726 38.822C63.726 36.578 64.496 34.6787 66.036 33.124C67.5907 31.5693 69.512 30.792 71.8 30.792C73.2373 30.792 74.55 31.122 75.738 31.782C76.926 32.4273 77.85 33.2927 78.51 34.378L75.914 35.874C75.5473 35.2433 74.99 34.73 74.242 34.334C73.5087 33.938 72.6873 33.74 71.778 33.74C70.3113 33.74 69.1013 34.224 68.148 35.192C67.2093 36.1453 66.74 37.3553 66.74 38.822C66.74 40.274 67.2167 41.4767 68.17 42.43C69.138 43.3687 70.414 43.838 71.998 43.838C73.1713 43.838 74.1393 43.5813 74.902 43.068C75.6793 42.54 76.2073 41.8213 76.486 40.912H71.822V38.228H79.544ZM94.6614 44.498C93.1068 46.038 91.2148 46.808 88.9854 46.808C86.7561 46.808 84.8641 46.038 83.3094 44.498C81.7694 42.9433 80.9994 41.044 80.9994 38.8C80.9994 36.556 81.7694 34.664 83.3094 33.124C84.8641 31.5693 86.7561 30.792 88.9854 30.792C91.2148 30.792 93.1068 31.5693 94.6614 33.124C96.2161 34.664 96.9934 36.556 96.9934 38.8C96.9934 41.044 96.2161 42.9433 94.6614 44.498ZM85.4434 42.43C86.3968 43.3687 87.5774 43.838 88.9854 43.838C90.3934 43.838 91.5741 43.3687 92.5274 42.43C93.4808 41.4767 93.9574 40.2667 93.9574 38.8C93.9574 37.3333 93.4808 36.1233 92.5274 35.17C91.5741 34.2167 90.3934 33.74 88.9854 33.74C87.5774 33.74 86.3968 34.2167 85.4434 35.17C84.4901 36.1233 84.0134 37.3333 84.0134 38.8C84.0134 40.2667 84.4901 41.4767 85.4434 42.43ZM112.085 44.498C110.531 46.038 108.639 46.808 106.409 46.808C104.18 46.808 102.288 46.038 100.733 44.498C99.1933 42.9433 98.4233 41.044 98.4233 38.8C98.4233 36.556 99.1933 34.664 100.733 33.124C102.288 31.5693 104.18 30.792 106.409 30.792C108.639 30.792 110.531 31.5693 112.085 33.124C113.64 34.664 114.417 36.556 114.417 38.8C114.417 41.044 113.64 42.9433 112.085 44.498ZM102.867 42.43C103.821 43.3687 105.001 43.838 106.409 43.838C107.817 43.838 108.998 43.3687 109.951 42.43C110.905 41.4767 111.381 40.2667 111.381 38.8C111.381 37.3333 110.905 36.1233 109.951 35.17C108.998 34.2167 107.817 33.74 106.409 33.74C105.001 33.74 103.821 34.2167 102.867 35.17C101.914 36.1233 101.437 37.3333 101.437 38.8C101.437 40.2667 101.914 41.4767 102.867 42.43ZM131.665 38.228V39.416C131.665 41.616 130.961 43.398 129.553 44.762C128.145 46.126 126.326 46.808 124.097 46.808C121.721 46.808 119.748 46.038 118.179 44.498C116.624 42.9433 115.847 41.0513 115.847 38.822C115.847 36.578 116.617 34.6787 118.157 33.124C119.712 31.5693 121.633 30.792 123.921 30.792C125.358 30.792 126.671 31.122 127.859 31.782C129.047 32.4273 129.971 33.2927 130.631 34.378L128.035 35.874C127.668 35.2433 127.111 34.73 126.363 34.334C125.63 33.938 124.808 33.74 123.899 33.74C122.432 33.74 121.222 34.224 120.269 35.192C119.33 36.1453 118.861 37.3553 118.861 38.822C118.861 40.274 119.338 41.4767 120.291 42.43C121.259 43.3687 122.535 43.838 124.119 43.838C125.292 43.838 126.26 43.5813 127.023 43.068C127.8 42.54 128.328 41.8213 128.607 40.912H123.943V38.228H131.665ZM136.861 43.596H142.735V46.5H133.825V31.1H136.861V43.596ZM147.495 43.596H153.985V46.5H144.459V31.1H153.875V34.004H147.495V37.282H153.325V40.142H147.495V43.596ZM167.367 31.1C168.849 31.1 170.095 31.5987 171.107 32.596C172.119 33.5933 172.625 34.818 172.625 36.27C172.625 37.722 172.119 38.9467 171.107 39.944C170.095 40.9413 168.849 41.44 167.367 41.44H164.661V46.5H161.625V31.1H167.367ZM167.367 38.602C168.013 38.602 168.548 38.382 168.973 37.942C169.399 37.4873 169.611 36.93 169.611 36.27C169.611 35.5953 169.399 35.038 168.973 34.598C168.548 34.158 168.013 33.938 167.367 33.938H164.661V38.602H167.367ZM177.638 43.596H183.512V46.5H174.602V31.1H177.638V43.596ZM195.566 46.5L194.642 43.728H188.504L187.58 46.5H184.302L189.692 31.1H193.454L198.866 46.5H195.566ZM189.472 40.89H193.696L191.584 34.598L189.472 40.89ZM210.552 31.1L205.272 40.494V46.5H202.258V40.494L197 31.1H200.432L203.776 37.524L207.12 31.1H210.552Z" fill="white"/>
<rect x="0.5" y="0.5" width="244" height="59" rx="3.5" stroke="white"/>
<defs>
<clipPath id="clip0_131_100">
<rect width="18" height="20" fill="white" transform="translate(24 20)"/>
</clipPath>
</defs>
</svg>
