<svg width="245" height="60" viewBox="0 0 245 60" fill="none" xmlns="http://www.w3.org/2000/svg">
<rect x="0.5" y="0.5" width="244" height="59" rx="3.5" fill="#161E27"/>
<circle cx="30" cy="30" r="21.5" stroke="#8D979E"/>
<g clip-path="url(#clip0_131_407)">
<path fill-rule="evenodd" clip-rule="evenodd" d="M41 19L29.2048 20.5241V29.4699H41V19ZM28.1446 20.6566L19 21.8494V29.4699H28.1446V20.6566ZM19 30.5301V38.1506L28.1446 39.3434V30.5301H19ZM29.2048 39.4759L41 41V30.5301H29.2048V39.4759Z" fill="white"/>
</g>
<path d="M67.459 13.4C68.707 13.4 69.747 13.8377 70.579 14.713C71.4197 15.5883 71.84 16.6673 71.84 17.95C71.84 19.2327 71.4197 20.3117 70.579 21.187C69.747 22.0623 68.707 22.5 67.459 22.5H63.845V13.4H67.459ZM67.459 20.784C68.2477 20.784 68.889 20.524 69.383 20.004C69.877 19.4753 70.124 18.7907 70.124 17.95C70.124 17.1093 69.877 16.429 69.383 15.909C68.889 15.3803 68.2477 15.116 67.459 15.116H65.639V20.784H67.459ZM78.5726 21.694C77.9052 22.3527 77.0906 22.682 76.1286 22.682C75.1666 22.682 74.3519 22.3527 73.6846 21.694C73.0259 21.0267 72.6966 20.212 72.6966 19.25C72.6966 18.288 73.0259 17.4777 73.6846 16.819C74.3519 16.1517 75.1666 15.818 76.1286 15.818C77.0906 15.818 77.9052 16.1517 78.5726 16.819C79.2399 17.4777 79.5736 18.288 79.5736 19.25C79.5736 20.212 79.2399 21.0267 78.5726 21.694ZM74.8676 20.537C75.2056 20.875 75.6259 21.044 76.1286 21.044C76.6312 21.044 77.0516 20.875 77.3896 20.537C77.7276 20.199 77.8966 19.77 77.8966 19.25C77.8966 18.73 77.7276 18.301 77.3896 17.963C77.0516 17.625 76.6312 17.456 76.1286 17.456C75.6259 17.456 75.2056 17.625 74.8676 17.963C74.5382 18.301 74.3736 18.73 74.3736 19.25C74.3736 19.77 74.5382 20.199 74.8676 20.537ZM87.8184 16H89.5994L87.5324 22.5H85.9334L84.7374 18.561L83.5414 22.5H81.9424L79.8754 16H81.6564L82.7614 19.991L83.9444 16H85.5304L86.7134 20.004L87.8184 16ZM94.1173 15.818C94.828 15.818 95.413 16.0563 95.8723 16.533C96.3403 17.0097 96.5743 17.6683 96.5743 18.509V22.5H94.8973V18.717C94.8973 18.2837 94.7803 17.9543 94.5463 17.729C94.3123 17.495 94.0003 17.378 93.6103 17.378C93.177 17.378 92.8303 17.5123 92.5703 17.781C92.3103 18.0497 92.1803 18.4527 92.1803 18.99V22.5H90.5033V16H92.1803V16.728C92.5877 16.1213 93.2333 15.818 94.1173 15.818ZM98.0063 22.5V13.01H99.6833V22.5H98.0063ZM106.756 21.694C106.089 22.3527 105.274 22.682 104.312 22.682C103.35 22.682 102.536 22.3527 101.868 21.694C101.21 21.0267 100.88 20.212 100.88 19.25C100.88 18.288 101.21 17.4777 101.868 16.819C102.536 16.1517 103.35 15.818 104.312 15.818C105.274 15.818 106.089 16.1517 106.756 16.819C107.424 17.4777 107.757 18.288 107.757 19.25C107.757 20.212 107.424 21.0267 106.756 21.694ZM103.051 20.537C103.389 20.875 103.81 21.044 104.312 21.044C104.815 21.044 105.235 20.875 105.573 20.537C105.911 20.199 106.08 19.77 106.08 19.25C106.08 18.73 105.911 18.301 105.573 17.963C105.235 17.625 104.815 17.456 104.312 17.456C103.81 17.456 103.389 17.625 103.051 17.963C102.722 18.301 102.557 18.73 102.557 19.25C102.557 19.77 102.722 20.199 103.051 20.537ZM113.877 16H115.554V22.5H113.877V21.733C113.374 22.3657 112.668 22.682 111.758 22.682C110.891 22.682 110.146 22.3527 109.522 21.694C108.907 21.0267 108.599 20.212 108.599 19.25C108.599 18.288 108.907 17.4777 109.522 16.819C110.146 16.1517 110.891 15.818 111.758 15.818C112.668 15.818 113.374 16.1343 113.877 16.767V16ZM110.783 20.576C111.121 20.914 111.55 21.083 112.07 21.083C112.59 21.083 113.019 20.914 113.357 20.576C113.704 20.2293 113.877 19.7873 113.877 19.25C113.877 18.7127 113.704 18.275 113.357 17.937C113.019 17.5903 112.59 17.417 112.07 17.417C111.55 17.417 111.121 17.5903 110.783 17.937C110.445 18.275 110.276 18.7127 110.276 19.25C110.276 19.7873 110.445 20.2293 110.783 20.576ZM122.002 13.4H123.679V22.5H122.002V21.733C121.508 22.3657 120.806 22.682 119.896 22.682C119.02 22.682 118.271 22.3527 117.647 21.694C117.031 21.0267 116.724 20.212 116.724 19.25C116.724 18.288 117.031 17.4777 117.647 16.819C118.271 16.1517 119.02 15.818 119.896 15.818C120.806 15.818 121.508 16.1343 122.002 16.767V13.4ZM118.908 20.576C119.254 20.914 119.688 21.083 120.208 21.083C120.728 21.083 121.157 20.914 121.495 20.576C121.833 20.2293 122.002 19.7873 122.002 19.25C122.002 18.7127 121.833 18.275 121.495 17.937C121.157 17.5903 120.728 17.417 120.208 17.417C119.688 17.417 119.254 17.5903 118.908 17.937C118.57 18.275 118.401 18.7127 118.401 19.25C118.401 19.7873 118.57 20.2293 118.908 20.576ZM131.959 14.83C131.041 14.7607 130.581 15.129 130.581 15.935V16H131.959V17.612H130.581V22.5H128.904V17.612H127.968V16H128.904V15.935C128.904 15.0163 129.16 14.3187 129.671 13.842C130.183 13.3653 130.945 13.1573 131.959 13.218V14.83ZM138.025 21.694C137.357 22.3527 136.543 22.682 135.581 22.682C134.619 22.682 133.804 22.3527 133.137 21.694C132.478 21.0267 132.149 20.212 132.149 19.25C132.149 18.288 132.478 17.4777 133.137 16.819C133.804 16.1517 134.619 15.818 135.581 15.818C136.543 15.818 137.357 16.1517 138.025 16.819C138.692 17.4777 139.026 18.288 139.026 19.25C139.026 20.212 138.692 21.0267 138.025 21.694ZM134.32 20.537C134.658 20.875 135.078 21.044 135.581 21.044C136.083 21.044 136.504 20.875 136.842 20.537C137.18 20.199 137.349 19.77 137.349 19.25C137.349 18.73 137.18 18.301 136.842 17.963C136.504 17.625 136.083 17.456 135.581 17.456C135.078 17.456 134.658 17.625 134.32 17.963C133.99 18.301 133.826 18.73 133.826 19.25C133.826 19.77 133.99 20.199 134.32 20.537ZM141.882 17.118C142.038 16.702 142.294 16.39 142.649 16.182C143.013 15.974 143.416 15.87 143.858 15.87V17.742C143.347 17.6813 142.888 17.7853 142.48 18.054C142.082 18.3227 141.882 18.769 141.882 19.393V22.5H140.205V16H141.882V17.118Z" fill="white"/>
<path d="M67.642 46.5L63.33 31.1H66.52L69.468 42.518L72.68 31.1H75.276L78.51 42.518L81.458 31.1H84.648L80.336 46.5H76.882L73.978 36.336L71.096 46.5H67.642ZM87.2548 34.18C86.7855 34.18 86.3748 34.0113 86.0228 33.674C85.6855 33.322 85.5168 32.9113 85.5168 32.442C85.5168 31.9727 85.6855 31.562 86.0228 31.21C86.3748 30.858 86.7855 30.682 87.2548 30.682C87.7388 30.682 88.1495 30.858 88.4868 31.21C88.8388 31.562 89.0148 31.9727 89.0148 32.442C89.0148 32.9113 88.8388 33.322 88.4868 33.674C88.1495 34.0113 87.7388 34.18 87.2548 34.18ZM85.8468 46.5V35.5H88.6848V46.5H85.8468ZM97.3984 35.192C98.601 35.192 99.591 35.5953 100.368 36.402C101.16 37.2087 101.556 38.3233 101.556 39.746V46.5H98.7184V40.098C98.7184 39.3647 98.5204 38.8073 98.1244 38.426C97.7284 38.03 97.2004 37.832 96.5404 37.832C95.807 37.832 95.2204 38.0593 94.7804 38.514C94.3404 38.9687 94.1204 39.6507 94.1204 40.56V46.5H91.2824V35.5H94.1204V36.732C94.8097 35.7053 95.9024 35.192 97.3984 35.192ZM112.318 31.1H115.156V46.5H112.318V45.202C111.482 46.2727 110.294 46.808 108.754 46.808C107.272 46.808 106.004 46.2507 104.948 45.136C103.906 44.0067 103.386 42.628 103.386 41C103.386 39.372 103.906 38.0007 104.948 36.886C106.004 35.7567 107.272 35.192 108.754 35.192C110.294 35.192 111.482 35.7273 112.318 36.798V31.1ZM107.082 43.244C107.668 43.816 108.402 44.102 109.282 44.102C110.162 44.102 110.888 43.816 111.46 43.244C112.032 42.6573 112.318 41.9093 112.318 41C112.318 40.0907 112.032 39.35 111.46 38.778C110.888 38.1913 110.162 37.898 109.282 37.898C108.402 37.898 107.668 38.1913 107.082 38.778C106.51 39.35 106.224 40.0907 106.224 41C106.224 41.9093 106.51 42.6573 107.082 43.244ZM127.123 45.136C125.994 46.2507 124.615 46.808 122.987 46.808C121.359 46.808 119.98 46.2507 118.851 45.136C117.736 44.0067 117.179 42.628 117.179 41C117.179 39.372 117.736 38.0007 118.851 36.886C119.98 35.7567 121.359 35.192 122.987 35.192C124.615 35.192 125.994 35.7567 127.123 36.886C128.252 38.0007 128.817 39.372 128.817 41C128.817 42.628 128.252 44.0067 127.123 45.136ZM120.853 43.178C121.425 43.75 122.136 44.036 122.987 44.036C123.838 44.036 124.549 43.75 125.121 43.178C125.693 42.606 125.979 41.88 125.979 41C125.979 40.12 125.693 39.394 125.121 38.822C124.549 38.25 123.838 37.964 122.987 37.964C122.136 37.964 121.425 38.25 120.853 38.822C120.296 39.394 120.017 40.12 120.017 41C120.017 41.88 120.296 42.606 120.853 43.178ZM142.77 35.5H145.784L142.286 46.5H139.58L137.556 39.834L135.532 46.5H132.826L129.328 35.5H132.342L134.212 42.254L136.214 35.5H138.898L140.9 42.276L142.77 35.5ZM149.244 38.624C149.244 38.9173 149.435 39.1593 149.816 39.35C150.212 39.526 150.689 39.6873 151.246 39.834C151.803 39.966 152.361 40.142 152.918 40.362C153.475 40.5673 153.945 40.9193 154.326 41.418C154.722 41.9167 154.92 42.54 154.92 43.288C154.92 44.4173 154.495 45.29 153.644 45.906C152.808 46.5073 151.759 46.808 150.498 46.808C148.239 46.808 146.699 45.9353 145.878 44.19L148.342 42.804C148.665 43.7573 149.383 44.234 150.498 44.234C151.51 44.234 152.016 43.9187 152.016 43.288C152.016 42.9947 151.818 42.76 151.422 42.584C151.041 42.3933 150.571 42.2247 150.014 42.078C149.457 41.9313 148.899 41.748 148.342 41.528C147.785 41.308 147.308 40.9633 146.912 40.494C146.531 40.01 146.34 39.4087 146.34 38.69C146.34 37.6047 146.736 36.754 147.528 36.138C148.335 35.5073 149.332 35.192 150.52 35.192C151.415 35.192 152.229 35.3973 152.962 35.808C153.695 36.204 154.275 36.776 154.7 37.524L152.28 38.844C151.928 38.096 151.341 37.722 150.52 37.722C150.153 37.722 149.845 37.8027 149.596 37.964C149.361 38.1253 149.244 38.3453 149.244 38.624Z" fill="white"/>
<rect x="0.5" y="0.5" width="244" height="59" rx="3.5" stroke="white"/>
<defs>
<clipPath id="clip0_131_407">
<rect width="22" height="22" fill="white" transform="translate(19 19)"/>
</clipPath>
</defs>
</svg>
