<svg width="16" height="14" viewBox="0 0 16 14" fill="none" xmlns="http://www.w3.org/2000/svg">
<path d="M10.648 0.240479L14.8292 4.42166C15.6097 5.20215 15.9999 6.20564 15.9999 7.20912C15.9999 8.2126 15.6097 9.27184 14.8292 9.99658L11.317 13.6203H9.25427L13.8257 9.04884C14.3274 8.5471 14.5504 7.87811 14.5504 7.26487C14.5504 6.59588 14.3274 5.98264 13.8257 5.4809L8.69678 0.351977L10.648 0.240479Z" fill="#FFCC00"/>
<path fill-rule="evenodd" clip-rule="evenodd" d="M12.9895 6.26154L7.08014 0.296387L0.167247 0.519383L0 7.37653L5.96516 13.3417C6.52265 13.8992 7.41463 13.8992 7.91638 13.3417L13.0453 8.21276C13.547 7.71102 13.547 6.81904 12.9895 6.26154ZM4.06969 2.74935C4.51568 3.19534 4.51568 3.97583 4.06969 4.42182C3.62369 4.86782 2.84321 4.86782 2.45296 4.42182C2.00697 3.97583 2.00697 3.19534 2.45296 2.74935C2.89895 2.30336 3.62369 2.30336 4.06969 2.74935Z" fill="#FFCC00"/>
</svg>
