<svg width="128" height="29" viewBox="0 0 128 29" fill="none" xmlns="http://www.w3.org/2000/svg">
<g clip-path="url(#clip0_130_471)">
<path d="M73.8001 8.9198C74.9401 4.3398 72.1601 0.549805 65.3501 0.549805H50.5901L45.0601 22.9498L48.2701 28.4598H58.7701C65.6501 28.4598 70.9801 25.2498 72.3501 19.6698C73.0401 16.8098 72.2401 14.8098 70.4401 13.8098V13.7398C72.147 12.6341 73.3531 10.9039 73.8001 8.9198ZM64.8001 19.4898C64.5201 20.6598 63.7301 21.8598 60.4601 21.8598H53.7601L54.9301 17.0598H61.6001C64.8301 17.0498 65.0701 18.2798 64.7601 19.4898H64.8001ZM66.1401 9.06981C65.9001 9.9698 65.2101 11.0698 62.3901 11.0698H56.3901L57.3901 7.1698H63.3901C66.2401 7.1498 66.3801 8.06981 66.1401 9.06981Z" fill="#14A0FF"/>
<path d="M83.0899 17.6498H96.5299L98.0599 11.0498H84.7099L85.7499 7.1498H98.9699L100.5 0.549805H78.7999L71.9199 28.4498H96.4999L98.1099 21.8498H82.0999L83.0899 17.6498Z" fill="#14A0FF"/>
<path d="M102.38 0.549805L100.84 7.1498H108.87L103.6 28.4498H112.03L117.31 7.1498H125.91L127.56 0.549805H102.38Z" fill="#14A0FF"/>
<path d="M8.82 28.4498H0.32L4 13.5498L4.85 11.2998L2.6 13.5498L0.1 16.0798L0 8.6398L8.82 0.549805H15.69L8.82 28.4498Z" fill="white"/>
<path d="M39.5101 16.8898L36.8001 12.2998L49.9501 0.549805H37.7001L32.7001 5.3498L15.7401 20.8998L7.6001 28.4498H19.1901L27.9001 20.6798L30.8301 25.6798C31.8301 26.9398 33.2401 28.4698 39.2201 28.4698H46.2201L39.5201 16.8798L39.5101 16.8898Z" fill="white"/>
<path d="M31.7601 3.80993V3.74993C31.0098 2.7032 30.0086 1.86166 28.8484 1.30255C27.6883 0.743431 26.4063 0.484642 25.1201 0.549927H16.0701L22.8201 12.0299L31.7601 3.80993Z" fill="white"/>
</g>
<defs>
<clipPath id="clip0_130_471">
<rect width="127.56" height="27.9" fill="white" transform="translate(0 0.549805)"/>
</clipPath>
</defs>
</svg>
